<svg version="1.1" id="Layer_1" xmlns="http://www.w3.org/2000/svg" xmlns:xlink="http://www.w3.org/1999/xlink" x="0px" y="0px"
	 width="100%" viewBox="0 0 592 246" enable-background="new 0 0 592 246" xml:space="preserve">
<path fill="#5271FF" opacity="1.000000" stroke="none" 
	d="
M589.274292,247.000000 
	C392.919159,247.000000 197.092361,247.000000 1.132773,247.000000 
	C1.132773,165.091446 1.132773,83.182594 1.132773,1.136872 
	C198.235428,1.136872 395.470978,1.136872 592.853271,1.136872 
	C592.853271,82.899208 592.853271,164.798767 592.853271,247.000000 
	C591.939453,247.000000 590.871033,247.000000 589.274292,247.000000 
M487.211151,160.235641 
	C482.412872,157.345428 479.321472,160.952682 475.984558,163.625320 
	C476.088379,163.020020 476.192169,162.414719 476.295959,161.809418 
	C473.455139,160.939865 470.614319,160.070312 467.391663,159.083878 
	C467.391663,169.267044 467.391663,178.170090 467.391663,187.242310 
	C470.607239,187.242310 473.521332,187.242310 476.852234,187.242310 
	C476.852234,183.970276 476.850433,181.005310 476.852509,178.040359 
	C476.858856,169.078552 476.972595,168.949936 485.330627,168.004929 
	C486.274994,165.518326 487.156433,163.197495 488.088959,161.642532 
	C490.723480,168.280228 493.356171,174.918655 495.992981,181.555435 
	C499.126282,189.441711 498.405945,190.788818 490.081482,192.469177 
	C490.081482,194.580963 490.081482,196.706055 490.081482,198.783997 
	C496.929260,200.374588 502.189697,199.178146 504.540161,193.935654 
	C509.446991,182.991196 513.511963,171.669342 518.000305,160.306305 
	C508.382965,159.079651 508.401947,159.085449 505.895050,167.280930 
	C505.010437,170.172943 504.007904,173.028885 502.656281,177.121323 
	C500.932770,171.460449 499.853455,167.090805 498.199188,162.950897 
	C497.656006,161.591537 495.737915,160.227615 494.241760,159.939438 
	C492.250916,159.556015 490.057892,160.222443 487.211151,160.235641 
M352.092102,174.713379 
	C352.092102,178.820343 352.092102,182.927322 352.092102,187.124756 
	C355.706390,187.124756 358.735565,187.124756 361.830811,187.124756 
	C361.830811,175.240280 361.830811,163.775909 361.830811,152.021744 
	C358.603241,152.021744 355.516571,152.021744 351.979553,152.021744 
	C351.979553,156.388641 351.979553,160.481293 351.979553,164.645294 
	C348.131165,164.645294 344.740173,164.645294 340.909851,164.645294 
	C340.909851,160.265472 340.909851,156.185989 340.909851,152.174316 
	C337.416290,152.174316 334.379181,152.174316 331.367096,152.174316 
	C331.367096,164.054962 331.367096,175.491562 331.367096,187.198456 
	C334.638947,187.198456 337.694275,187.198456 341.258179,187.198456 
	C341.258179,182.283279 341.258179,177.709641 341.258179,172.569519 
	C345.197601,173.012131 348.575012,173.391617 352.092102,174.713379 
M459.054321,164.545197 
	C453.513275,158.653244 445.255951,157.445526 439.302216,161.656281 
	C433.945190,165.444992 432.218262,174.568573 435.617126,181.125183 
	C438.717560,187.106186 446.249664,189.652420 453.338654,187.116028 
	C461.324188,184.258850 463.972382,174.775238 459.054321,164.545197 
M405.563629,183.853668 
	C410.924835,172.483856 400.171509,171.242172 394.073944,167.074295 
	C394.337524,166.641083 394.601074,166.207855 394.864655,165.774643 
	C397.945892,166.236420 401.027100,166.698196 404.373291,167.199677 
	C405.095184,165.329285 405.780762,163.553040 406.844147,160.797897 
	C402.175171,160.235947 398.279968,159.317871 394.412048,159.421265 
	C390.088745,159.536850 386.008057,161.092575 385.159607,166.155182 
	C384.295532,171.310913 387.311066,174.167221 391.716919,176.039886 
	C393.815521,176.931870 395.801880,178.087967 397.839111,179.124420 
	C397.628845,179.790756 397.418579,180.457077 397.208313,181.123398 
	C393.286438,180.600861 389.364594,180.078323 384.406372,179.417694 
	C385.206940,182.085953 385.400299,186.252945 386.767212,186.682159 
	C392.981812,188.633469 399.528503,189.544327 405.563629,183.853668 
M427.810822,159.821579 
	C426.358276,159.719025 424.905731,159.616455 423.463440,159.514618 
	C423.203583,157.560547 422.992950,155.976501 422.802032,154.540863 
	C418.972473,153.501556 416.412476,154.001175 415.118469,157.997696 
	C414.617523,159.544891 412.537628,160.518295 411.717865,162.043716 
	C411.004852,163.370468 411.053802,165.106659 410.766022,166.661911 
	C414.717072,167.118561 413.306274,170.183807 413.480896,172.392975 
	C413.742828,175.706375 413.440857,179.112106 414.088348,182.336060 
	C415.060272,187.175613 420.335419,189.084854 426.838318,187.674744 
	C431.946960,186.566971 430.244873,183.194382 429.974091,180.096283 
	C422.498688,180.444366 421.597778,178.504578 423.772308,167.153931 
	C425.657532,167.036911 427.593414,166.916733 430.531982,166.734329 
	C429.858307,164.209320 429.283539,162.055099 427.810822,159.821579 
M369.126678,175.481033 
	C369.126678,179.380981 369.126678,183.280914 369.126678,187.224976 
	C372.751129,187.224976 375.654114,187.224976 378.666779,187.224976 
	C378.666779,178.006668 378.666779,169.129593 378.666779,160.180344 
	C375.395386,160.180344 372.365692,160.180344 369.126678,160.180344 
	C369.126678,165.225800 369.126678,169.858383 369.126678,175.481033 
M369.473785,154.931244 
	C371.045013,155.639938 372.570618,156.790863 374.197632,156.958740 
	C376.976898,157.245529 379.100372,156.026260 379.095367,152.783875 
	C379.090240,149.464401 376.859161,148.690399 374.095795,148.659500 
	C370.344940,148.617554 368.512848,150.314911 369.473785,154.931244 
z"/>
<path fill="#03040A" opacity="1.000000" stroke="none" 
	d="
M352.022278,174.242249 
	C348.575012,173.391617 345.197601,173.012131 341.258179,172.569519 
	C341.258179,177.709641 341.258179,182.283279 341.258179,187.198456 
	C337.694275,187.198456 334.638947,187.198456 331.367096,187.198456 
	C331.367096,175.491562 331.367096,164.054962 331.367096,152.174316 
	C334.379181,152.174316 337.416290,152.174316 340.909851,152.174316 
	C340.909851,156.185989 340.909851,160.265472 340.909851,164.645294 
	C344.740173,164.645294 348.131165,164.645294 351.979553,164.645294 
	C351.979553,160.481293 351.979553,156.388641 351.979553,152.021744 
	C355.516571,152.021744 358.603241,152.021744 361.830811,152.021744 
	C361.830811,163.775909 361.830811,175.240280 361.830811,187.124756 
	C358.735565,187.124756 355.706390,187.124756 352.092102,187.124756 
	C352.092102,182.927322 352.092102,178.820343 352.022278,174.242249 
z"/>
<path fill="#020308" opacity="1.000000" stroke="none" 
	d="
M487.951721,160.437851 
	C490.057892,160.222443 492.250916,159.556015 494.241760,159.939438 
	C495.737915,160.227615 497.656006,161.591537 498.199188,162.950897 
	C499.853455,167.090805 500.932770,171.460449 502.656281,177.121323 
	C504.007904,173.028885 505.010437,170.172943 505.895050,167.280930 
	C508.401947,159.085449 508.382965,159.079651 518.000305,160.306305 
	C513.511963,171.669342 509.446991,182.991196 504.540161,193.935654 
	C502.189697,199.178146 496.929260,200.374588 490.081482,198.783997 
	C490.081482,196.706055 490.081482,194.580963 490.081482,192.469177 
	C498.405945,190.788818 499.126282,189.441711 495.992981,181.555435 
	C493.356171,174.918655 490.723480,168.280228 488.051819,161.147949 
	C488.014648,160.653366 487.951721,160.437851 487.951721,160.437851 
z"/>
<path fill="#030409" opacity="1.000000" stroke="none" 
	d="
M459.261719,164.853394 
	C463.972382,174.775238 461.324188,184.258850 453.338654,187.116028 
	C446.249664,189.652420 438.717560,187.106186 435.617126,181.125183 
	C432.218262,174.568573 433.945190,165.444992 439.302216,161.656281 
	C445.255951,157.445526 453.513275,158.653244 459.261719,164.853394 
M450.398041,179.740494 
	C450.845886,178.680496 451.768890,177.565491 451.653717,176.570648 
	C451.287689,173.408020 450.678467,170.246567 449.755951,167.208328 
	C449.636108,166.813492 446.018127,166.811951 445.905792,167.189392 
	C445.000671,170.230423 444.038940,173.415527 444.097595,176.537781 
	C444.157776,179.740448 445.985565,181.922501 450.398041,179.740494 
z"/>
<path fill="#03040A" opacity="1.000000" stroke="none" 
	d="
M405.325226,184.158844 
	C399.528503,189.544327 392.981812,188.633469 386.767212,186.682159 
	C385.400299,186.252945 385.206940,182.085953 384.406372,179.417694 
	C389.364594,180.078323 393.286438,180.600861 397.208313,181.123398 
	C397.418579,180.457077 397.628845,179.790756 397.839111,179.124420 
	C395.801880,178.087967 393.815521,176.931870 391.716919,176.039886 
	C387.311066,174.167221 384.295532,171.310913 385.159607,166.155182 
	C386.008057,161.092575 390.088745,159.536850 394.412048,159.421265 
	C398.279968,159.317871 402.175171,160.235947 406.844147,160.797897 
	C405.780762,163.553040 405.095184,165.329285 404.373291,167.199677 
	C401.027100,166.698196 397.945892,166.236420 394.864655,165.774643 
	C394.601074,166.207855 394.337524,166.641083 394.073944,167.074295 
	C400.171509,171.242172 410.924835,172.483856 405.325226,184.158844 
z"/>
<path fill="#020306" opacity="1.000000" stroke="none" 
	d="
M428.259796,159.861237 
	C429.283539,162.055099 429.858307,164.209320 430.531982,166.734329 
	C427.593414,166.916733 425.657532,167.036911 423.772308,167.153931 
	C421.597778,178.504578 422.498688,180.444366 429.974091,180.096283 
	C430.244873,183.194382 431.946960,186.566971 426.838318,187.674744 
	C420.335419,189.084854 415.060272,187.175613 414.088348,182.336060 
	C413.440857,179.112106 413.742828,175.706375 413.480896,172.392975 
	C413.306274,170.183807 414.717072,167.118561 410.766052,166.661911 
	C411.053802,165.106659 411.004852,163.370468 411.717865,162.043716 
	C412.537628,160.518295 414.617523,159.544891 415.118469,157.997696 
	C416.412476,154.001175 418.972473,153.501556 422.802032,154.540863 
	C422.992950,155.976501 423.203583,157.560547 423.463440,159.514618 
	C424.905731,159.616455 426.358276,159.719025 428.259796,159.861237 
z"/>
<path fill="#05060F" opacity="1.000000" stroke="none" 
	d="
M487.581421,160.336746 
	C487.951721,160.437851 488.014648,160.653366 488.026245,160.765015 
	C487.156433,163.197495 486.274994,165.518326 485.330627,168.004929 
	C476.972595,168.949936 476.858856,169.078552 476.852509,178.040359 
	C476.850433,181.005310 476.852234,183.970276 476.852234,187.242310 
	C473.521332,187.242310 470.607239,187.242310 467.391663,187.242310 
	C467.391663,178.170090 467.391663,169.267044 467.391663,159.083878 
	C470.614319,160.070312 473.455139,160.939865 476.295959,161.809418 
	C476.192169,162.414719 476.088379,163.020020 475.984558,163.625320 
	C479.321472,160.952682 482.412872,157.345428 487.581421,160.336746 
z"/>
<path fill="#050710" opacity="1.000000" stroke="none" 
	d="
M369.126678,174.986008 
	C369.126678,169.858383 369.126678,165.225800 369.126678,160.180344 
	C372.365692,160.180344 375.395386,160.180344 378.666779,160.180344 
	C378.666779,169.129593 378.666779,178.006668 378.666779,187.224976 
	C375.654114,187.224976 372.751129,187.224976 369.126678,187.224976 
	C369.126678,183.280914 369.126678,179.380981 369.126678,174.986008 
z"/>
<path fill="#03040A" opacity="1.000000" stroke="none" 
	d="
M369.309753,154.566223 
	C368.512848,150.314911 370.344940,148.617554 374.095795,148.659500 
	C376.859161,148.690399 379.090240,149.464401 379.095367,152.783875 
	C379.100372,156.026260 376.976898,157.245529 374.197632,156.958740 
	C372.570618,156.790863 371.045013,155.639938 369.309753,154.566223 
z"/>
<path fill="#4D6BF0" opacity="1.000000" stroke="none" 
	d="
M450.088470,179.989594 
	C445.985565,181.922501 444.157776,179.740448 444.097595,176.537781 
	C444.038940,173.415527 445.000671,170.230423 445.905792,167.189392 
	C446.018127,166.811951 449.636108,166.813492 449.755951,167.208328 
	C450.678467,170.246567 451.287689,173.408020 451.653717,176.570648 
	C451.768890,177.565491 450.845886,178.680496 450.088470,179.989594 
z"/>
</svg>